# xmcd
# Track frame offsets:
# 150
# 13853
# 23458
# 37378
# 51470
# 61665
# 74920
# 90508
# 102878
# 116065
# 128938
#
# Disc length: 1964 seconds
# Revision: 0
# Processed by: cddbd v1.4PL0 Copyright (c) Steve Scherf et al.
# Submitted via: VisiTrax 2.9.5.180 - For more info visit www.synapsa.com
#
DISCID=9c07aa0b
DTITLE=Odd Jarle Hanssen - I Know This Feelin
DYEAR=1993
DGENRE=
TTITLE0=Never A Day
TTITLE1=Tight As Twin Fiddles
TTITLE2=Carmen
TTITLE3=I Know This Feelin´
TTITLE4=Margie
TTITLE5=Call The Preacher
TTITLE6=Between The Mountains
TTITLE7=You´re Out Doing
TTITLE8=We´re Strangers Again
TTITLE9=Time And Place
TTITLE10=Where Were You?
EXTD=
EXTT0=
EXTT1=
EXTT2=
EXTT3=
EXTT4=
EXTT5=
EXTT6=
EXTT7=
EXTT8=
EXTT9=
EXTT10=
PLAYORDER=
